<?xml version="1.0" encoding="utf-8"?>
<!-- Generator: Adobe Illustrator 23.0.3, SVG Export Plug-In . SVG Version: 6.00 Build 0)  -->
<svg version="1.1" xmlns="http://www.w3.org/2000/svg" xmlns:xlink="http://www.w3.org/1999/xlink" x="0px" y="0px"
	 viewBox="0 0 530.4 521.4" style="enable-background:new 0 0 530.4 521.4;" xml:space="preserve">
<style type="text/css">
	.st0{fill:#EFEFEF;}
	.st1{fill:#EB506E;}
	.st2{fill:none;stroke:#202124;stroke-width:0.75;stroke-miterlimit:10;}
	.st3{fill:#202124;}
	.st4{fill:none;stroke:#202124;stroke-width:2;stroke-miterlimit:10;}
	.st5{fill:#D3D3D3;}
	.st6{fill:#B1CEFC;}
	.st7{fill:#FFFFFF;stroke:#202124;stroke-width:0.75;stroke-miterlimit:10;}
	.st8{fill:#5492ED;}
	.st9{fill:none;stroke:#202124;stroke-miterlimit:10;}
	.st10{fill:#E5E5E5;}
	.st11{fill:#FFFFFF;}
	.st12{fill:none;}
	.st13{fill:#BCBCBC;}
	.st14{fill:#F7CD5B;}
	.st15{fill:#040844;}
</style>
<g id="background">
	<g id="window">
		<path class="st0" d="M47.6,0.4l1.8,179.5l262.4-7.9c2.5-57.2,5-114.4,7.4-171.5C228.7,0.4,138.1,0.4,47.6,0.4z"/>
		<path class="st1" d="M113.9,129.8c0,6.1,0,12.1,0,18.2l137.8-4.1c0-5.3,0-10.7,0-16C205.8,128.5,159.9,129.1,113.9,129.8z"/>
		<line class="st2" x1="136.6" y1="44.4" x2="232.8" y2="44.4"/>
		<line class="st2" x1="219.6" y1="33.6" x2="232.8" y2="44.4"/>
		<line class="st2" x1="221.4" y1="57.1" x2="232.8" y2="44.4"/>
		<line class="st2" x1="232.8" y1="77.4" x2="136.6" y2="77.4"/>
		<line class="st2" x1="149.9" y1="66.6" x2="136.6" y2="77.4"/>
		<line class="st2" x1="148" y1="90.1" x2="136.6" y2="77.4"/>
		<g>
			<g>
				<path class="st3" d="M88.8,23.4c0,3.7,0,7.3,0,11c0,1.9,3,1.9,3,0c0-3.7,0-7.3,0-11C91.8,21.5,88.8,21.5,88.8,23.4L88.8,23.4z"
					/>
			</g>
		</g>
		<g>
			<g>
				<path class="st3" d="M98.9,35c-6.4-2.4-14.3-2.8-19.3,2.7c-3.6,4-3.9,10.7,0.5,14.3c6.2,5.1,18.4-1.5,21.3,7.9
					c1.8,5.7-2,12.3-7.5,14.3C88.8,76.1,83.5,74,80.2,70c-1.3-1.5-3.4,0.7-2.1,2.1c9.3,10.9,28.8,4.1,26.7-11.1
					c-0.9-6.6-6.1-9.4-12.3-9.6C87,51.3,77.7,51,80.2,42.7c2.3-7.7,12-7,17.9-4.8C99.9,38.5,100.7,35.6,98.9,35L98.9,35z"/>
			</g>
		</g>
		<g>
			<g>
				<path class="st3" d="M89.9,76.8c0,3.5,0,6.9,0,10.4c0,1.9,3,1.9,3,0c0-3.5,0-6.9,0-10.4C92.9,74.9,89.9,74.9,89.9,76.8
					L89.9,76.8z"/>
			</g>
		</g>
		<path class="st4" d="M290.3,24.3c-17.3,0-31.1,14.8-30.1,31.4c1,16,15.3,28.8,31.9,27.7"/>
		<line class="st4" x1="252.8" y1="46.1" x2="278.7" y2="46.1"/>
		<line class="st4" x1="252.9" y1="57.8" x2="278.8" y2="57.8"/>
		<line class="st2" x1="84.6" y1="164.1" x2="217" y2="159.5"/>
		<line class="st2" x1="223.4" y1="159.5" x2="278.8" y2="157.9"/>
		<line class="st2" x1="106.5" y1="170.8" x2="260.1" y2="165.8"/>
	</g>
	<g id="table">
		<path class="st3" d="M1.4,257.2c27.9,24.5,55.7,49,83.6,73.5c114.5-12.3,228.9-24.5,343.4-36.8c0.5-2.4,0.9-4.9,1.4-7.3
			c-48.5-18.9-97.1-37.8-145.6-56.7C189.7,235,95.3,240.1,0.9,245.3C1,249.2,1.2,253.2,1.4,257.2z"/>
		<path class="st5" d="M0.9,245.3c28.4,26.2,56.8,52.4,85.3,78.6c114.5-12.4,229-24.8,343.6-37.3c-45.3-22.1-90.5-44.2-135.8-66.2
			C196.3,228.7,98.6,237,0.9,245.3z"/>
	</g>
	<g id="coffee">
		<path class="st6" d="M88.1,276.7c6.4-4,12.8-8.1,19.2-12.1c8,2.8,16,5.5,24.1,8.3c-6.2,4.6-12.4,9.1-18.7,13.7
			C104.6,283.3,96.3,280,88.1,276.7z"/>
		<polygon class="st3" points="99,248.7 102.8,279.7 118.4,279.7 121.4,248.7 		"/>
		<ellipse class="st7" cx="110.2" cy="247.9" rx="11.2" ry="3.9"/>
		<g>
			<g>
				<path class="st3" d="M105.8,226.4c-1.6,1.3-3.8,4-2.9,6.2c1.1,2.8,5,1.8,6.3,4.1c0.5,0.8,1.8,0.1,1.3-0.8
					c-0.9-1.6-2.4-1.9-4-2.4c-1.5-0.5-2.6-1.5-1.8-3.2c0.5-1.1,1.3-2,2.2-2.8C107.6,226.9,106.5,225.8,105.8,226.4L105.8,226.4z"/>
			</g>
		</g>
		<g>
			<g>
				<path class="st3" d="M108.9,239.8c-1.9-0.2-3.6,1.6-3.3,3.5c0.4,2.2,3.1,2.4,4.3,4c0.6,0.7,1.7-0.3,1.1-1.1
					c-0.8-0.9-1.8-1.3-2.8-2c-0.6-0.4-1.3-0.9-1.1-1.7c0.2-0.9,1-1.4,1.8-1.3C109.9,241.4,109.9,239.9,108.9,239.8L108.9,239.8z"/>
			</g>
		</g>
		<g>
			<g>
				<path class="st3" d="M113.7,235.2c-1.6,0.3-2.4,1.9-1.8,3.4c1,2.6,5.9,4.3,2.4,7.5c-0.7,0.7,0.3,1.7,1.1,1.1
					c1.2-1.1,1.8-2.5,1.5-4.1c-0.1-0.7-0.4-1.3-0.8-1.8c-0.3-0.4-4.6-4.1-2.1-4.5C115.1,236.5,114.6,235.1,113.7,235.2L113.7,235.2z
					"/>
			</g>
		</g>
	</g>
	<g id="keyboard">
		<path class="st8" d="M130.6,251.8c5.4,5,10.8,10.2,16.3,15.6c5.4,5.3,10.6,10.5,15.5,15.7l125-13.7c-12.8-9.6-25.6-19.1-38.5-28.7
			C209.5,244.5,170,248.2,130.6,251.8z"/>
		<line class="st9" x1="139.9" y1="254.6" x2="164.2" y2="279.3"/>
		<line class="st9" x1="275.3" y1="265.4" x2="164.2" y2="279.3"/>
		<line class="st9" x1="139.9" y1="254.6" x2="247.6" y2="243.6"/>
		<line class="st9" x1="275.3" y1="265.4" x2="247.6" y2="243.6"/>
		<line class="st9" x1="144.8" y1="259.6" x2="253" y2="247.9"/>
		<line class="st9" x1="149.4" y1="264.2" x2="257.2" y2="251.8"/>
		<line class="st9" x1="155.1" y1="270" x2="264.1" y2="256.7"/>
		<line class="st9" x1="160.5" y1="274.3" x2="269.9" y2="262"/>
		<line class="st9" x1="149" y1="253.8" x2="173.4" y2="278.1"/>
		<line class="st9" x1="160" y1="252.5" x2="183.4" y2="276.9"/>
		<line class="st9" x1="173.1" y1="251.2" x2="195.3" y2="275.4"/>
		<line class="st9" x1="184.2" y1="250.1" x2="202.3" y2="270"/>
		<line class="st9" x1="196.7" y1="248.8" x2="213.8" y2="268.1"/>
		<line class="st9" x1="209.6" y1="247.9" x2="226.5" y2="266.8"/>
		<line class="st9" x1="221.2" y1="246.3" x2="242.7" y2="269.5"/>
		<line class="st9" x1="231.9" y1="245" x2="256.2" y2="267.8"/>
		<line class="st9" x1="240.7" y1="243.6" x2="266" y2="265.9"/>
	</g>
	<g id="plant">
		<polygon class="st3" points="469.9,442.3 476.2,507.8 514.7,507.8 521.7,442.3 		"/>
		<ellipse class="st7" cx="495.8" cy="443.4" rx="25.9" ry="6.7"/>
		<g>
			<g>
				<path class="st8" d="M490.9,375.1c-1.9,5.7-2.4,11.6-1.2,17.6c1.3,6.3,4.9,11.7,6.2,17.9c2.7,12.2-8,24.2-0.9,35.9
					c1,1.6,3.6,0.1,2.6-1.5c-6.4-10.6,3.3-22.4,1.5-33.6c-0.8-5.1-3.4-9.7-5.2-14.6c-2.5-6.9-2.5-14-0.2-20.9
					C494.3,374.1,491.5,373.3,490.9,375.1L490.9,375.1z"/>
			</g>
		</g>
		<g>
			<g>
				<path class="st8" d="M509.4,378.6c2.9,5.7,0.8,13.7-1.5,19.3c-2.4,5.7-6.7,10.8-10.1,15.9c-1.1,1.6,1.5,3.1,2.6,1.5
					c7-10.3,18.4-25.1,11.7-38.2C511.1,375.3,508.5,376.8,509.4,378.6L509.4,378.6z"/>
			</g>
		</g>
		<g>
			<g>
				<path class="st8" d="M469.2,394.6c-0.9,7.8,0.4,14.7,6.5,20.1c6.2,5.6,16.8,9.5,16.6,19.4c0,1.9,3,1.9,3,0
					c0.2-6.8-4.3-11.7-9.5-15.6c-3.4-2.6-7.2-4.7-10.1-7.9c-4-4.6-4.2-10.3-3.5-16C472.4,392.6,469.4,392.7,469.2,394.6L469.2,394.6
					z"/>
			</g>
		</g>
		<path class="st8" d="M480.6,418.4c-1-2.4-2.5-7-2-13c0.6-7.5,4.3-12.7,5.8-14.7c1,2.3,2.5,6.4,2.3,11.7
			C486.4,410.7,482.2,416.4,480.6,418.4z"/>
		<path class="st8" d="M470.5,401.9c-1.8-1.9-3.9-4.6-5.4-8.2c-4.7-11.6,0.9-22.8,2-24.9c1.9,2.2,5,6.5,6.3,12.7
			C475.7,391.5,471.7,399.6,470.5,401.9z"/>
		<path class="st8" d="M490.9,380.8c-1.3-2.3-2.8-5.9-3.2-10.5c-0.9-11.1,5.7-19.2,7.4-21.1c1,2.8,2,6.8,2,11.7
			C497.1,370.7,493,377.8,490.9,380.8z"/>
		<path class="st8" d="M495.3,407.2c-1.9-0.6-1.6-8.6,0.3-14.5c2.2-6.9,6.6-11.3,9.1-13.5c0.4,2,0.8,4.8,0.5,8.1
			C504.4,398.1,497.7,407.9,495.3,407.2z"/>
		<path class="st8" d="M492.8,439.4c-2.1,0-5.2-0.4-8.3-2c-9.2-4.8-10.4-16-10.5-17.3c2.5,0.8,8.2,2.9,13,8.4
			C490.6,432.7,492.1,437,492.8,439.4z"/>
		<path class="st8" d="M495.3,430.8c0.1-1.9,0.5-8.2,5.3-13.7c6.1-7.1,14.5-7.6,16-7.6c-0.7,2.7-2.4,7.4-6.3,11.9
			C504.8,427.8,498.1,430,495.3,430.8z"/>
		<path class="st8" d="M508.6,400c1.6-4.1,5-11.1,11.9-17.2c3.5-3.1,7-5.2,9.9-6.6c-0.1,1.9-0.6,9.5-6.6,16
			C517.9,398.6,510.6,399.7,508.6,400z"/>
		<path class="st8" d="M512.3,383.8c-1.7-2-5.2-6.8-5.6-13.4c-0.6-9.8,6-19.2,8.4-18.5c2.1,0.5,1.7,8.5,1.5,12.4
			C516.3,372.6,514.2,379.3,512.3,383.8z"/>
	</g>
</g>
<g id="character">
	<g id="chair_stand">
		<ellipse class="st10" cx="328.4" cy="503.6" rx="53.4" ry="17.4"/>
		<path class="st10" d="M303.7,393.5l11.5,105.7c1.5,1.1,7,4.8,14.7,4.4c6.1-0.4,10.4-3.2,12.1-4.4c3.8-33.4,7.5-66.8,11.3-100.2
			L303.7,393.5z"/>
	</g>
	<g id="leg_right">
		<path class="st1" d="M279.1,466.2c-33.1,11.8-49.2,19.6-48.3,23.2c1,4.2,24.8,3,71.2-3.7c-0.6-7-1.1-13.9-1.7-20.9
			C293.2,465.3,286.1,465.7,279.1,466.2z"/>
		<g>
			<g>
				<path class="st11" d="M276.2,468.6c-0.8-1.6-6.9-9.9-8.8-5.7c-0.7,1.5,0.5,4.1,1.4,5.2c1.1,1.2,2.9,1.9,4.4,1.2
					c1.2-0.5,1.1-1.2,1.8,0.4c0.4,1,0.7,2.1,1.2,3.1c0.6,1.2,2,3.2,3.6,2.5c1.3-0.5,0.9-2.1,0.5-3.1c-0.8-2-2.6-3.3-4.6-3.6
					c-0.5-0.1-0.7,0.6-0.2,0.7c1.7,0.3,3.1,1.2,3.9,2.7c0.8,1,0.6,1.5-0.7,1.4c-0.9,0.6-1.5,0.4-1.8-0.7c-0.3-0.6-0.6-1.2-0.8-1.8
					c-0.3-0.9-0.5-3-1.6-3.3c-0.3-0.1-0.5,0.2-0.7,0.3c-1.5,0.5-1.9,1.5-3.6,0.5c-1-0.5-1.7-1.8-2-2.8c-0.4-1.4-0.9-3.1,2.2-2.4
					c0.8,0.2,1.6,1.2,2.1,1.6c1.2,1.2,2.2,2.6,2.9,4.1C275.8,469.5,276.4,469.1,276.2,468.6L276.2,468.6z"/>
			</g>
		</g>
		<g>
			<g>
				<path class="st11" d="M255.8,474.9c1.6,0.2,3.1,1.1,4,2.5c0.3,0.4,0.9,0,0.6-0.4c-1-1.6-2.7-2.6-4.6-2.8
					C255.4,474.1,255.4,474.8,255.8,474.9L255.8,474.9z"/>
			</g>
		</g>
		<g>
			<g>
				<path class="st11" d="M260.5,472.9c1.8-0.6,3.1,1.1,4,2.4c0.3,0.4,0.9,0,0.6-0.4c-1.1-1.6-2.7-3.4-4.9-2.8
					C259.9,472.4,260.1,473.1,260.5,472.9L260.5,472.9z"/>
			</g>
		</g>
		<g>
			<g>
				<path class="st11" d="M265,471.1c1.6-0.1,3.2,0.9,3.6,2.5c0.1,0.5,0.9,0.3,0.7-0.2c-0.5-1.9-2.4-3.2-4.3-3.1
					C264.6,470.3,264.6,471.1,265,471.1L265,471.1z"/>
			</g>
		</g>
		<g>
			<g>
				<path class="st11" d="M268,469.9c1.6,0.2,3,1.4,3.4,2.9c0.1,0.5,0.9,0.3,0.7-0.2c-0.6-1.9-2.2-3.2-4.1-3.5
					C267.5,469.1,267.5,469.8,268,469.9L268,469.9z"/>
			</g>
		</g>
		<g>
			<g>
				<path class="st11" d="M257.5,488.5c14.5-0.8,28.9-2.5,43.2-5.2c0.5-0.1,0.3-0.8-0.2-0.7c-14.2,2.7-28.5,4.5-43,5.2
					C257,487.8,257,488.6,257.5,488.5L257.5,488.5z"/>
			</g>
		</g>
		<path class="st6" d="M253.1,329.7c1,6.8,2.5,15.9,4.3,26.5c0.7,3.9,2.6,15,5.7,31.2c4.3,22.3,6,28.9,11.2,54.5
			c2.1,10.4,3.7,18.8,4.7,24.3c1.3,1.1,3.1,2.3,5.4,3.1c7.9,2.6,15.1-2.5,16.2-3.3c-0.1-5.1-0.2-12.2-0.2-20.7
			c0-10.4,0.1-27.7,1.4-48.2c1.2-18.8,2.7-29.5,3-51.7c0.3-18.7-0.6-23.2-3.8-26.2C289.2,308.4,256.9,327.4,253.1,329.7z"/>
		<g>
			<path class="st12" d="M255.9,347.9c6.8,39.5,14.7,78.7,23.7,117.8"/>
		</g>
		<g>
			<path class="st12" d="M303.7,360.1c-2.1,34.9-3.2,69.8-3.4,104.7"/>
		</g>
		<g>
			<path class="st12" d="M279.1,466.2c5.9,5.3,15.8,5.2,21.6-0.2"/>
		</g>
	</g>
	<g id="chair">
		<path class="st13" d="M238.6,350.4c-2,5.6-3.8,12.3-5,20c-0.6,4.3-1,8.3-1.1,12c17.3,6.8,35.6,13.5,54.9,20
			c21,7,41.2,13.1,60.6,18.3c9.4-1.5,19.3-3.6,29.7-6.3c25.3-6.6,46.9-15.6,64.6-24.6c0.5-7.2,1-14.5,1.5-21.7
			C375.4,362.2,307,356.3,238.6,350.4z"/>
	</g>
	<g id="leg_left">
		<path class="st1" d="M192.1,475.3c-38.3,8.1-57.3,14.1-56.8,18.1c0.5,4.5,25.7,6.4,75.5,5.7c0.5-6.8,1.1-13.5,1.6-20.3
			C205.6,477.6,198.8,476.4,192.1,475.3z"/>
		<g>
			<g>
				<path class="st11" d="M186.7,478.9c-0.8-0.8-1.4-1.7-1.9-2.7c-0.4-0.9-1.2-2.9-0.8-3.8c0.7-1.7,1.9,1.9,2,2.3
					c0.3,1.3,0.1,2.6-0.3,3.8c-0.2,0.5,0.6,0.7,0.7,0.2c0.6-1.8,0.6-3.6-0.1-5.4c-0.3-0.8-1.2-2.9-2.5-2.4c-1.2,0.5-0.7,2.7-0.5,3.6
					c0.4,1.9,1.4,3.6,2.7,5C186.5,479.8,187,479.3,186.7,478.9L186.7,478.9z"/>
			</g>
		</g>
		<g>
			<g>
				<path class="st11" d="M185.7,478.8c0.5,1.9,1.1,3.8,2.2,5.5c0.5,0.7,1.9,2.8,3.1,2.3c1.2-0.5,0.4-2.7,0.1-3.5
					c-0.9-2.1-2.6-2.6-4.3-3.9c-0.4-0.3-0.9,0.2-0.5,0.5c1,0.8,2.2,1.2,3.1,2c0.5,0.5,2.7,4.4,0.7,3.7c-1-0.3-1.9-2.2-2.3-3.1
					c-0.6-1.2-1-2.5-1.3-3.7C186.3,478.1,185.6,478.3,185.7,478.8L185.7,478.8z"/>
			</g>
		</g>
		<g>
			<g>
				<path class="st11" d="M166.4,481.4c1.2,0.9,2,2.2,2.3,3.6c0.1,0.5,0.8,0.3,0.7-0.2c-0.3-1.7-1.3-3.1-2.7-4.1
					C166.4,480.5,166,481.2,166.4,481.4L166.4,481.4z"/>
			</g>
		</g>
		<g>
			<g>
				<path class="st11" d="M170.1,479.6c1.6,1,2.6,2.7,2.9,4.5c0.1,0.5,0.8,0.3,0.7-0.2c-0.3-2.1-1.5-3.9-3.3-5
					C170.1,478.7,169.7,479.4,170.1,479.6L170.1,479.6z"/>
			</g>
		</g>
		<g>
			<g>
				<path class="st11" d="M173.7,478.7c2,0.9,3.4,2.8,3.6,5c0,0.5,0.8,0.5,0.8,0c-0.2-2.5-1.7-4.6-4-5.6
					C173.7,477.9,173.3,478.5,173.7,478.7L173.7,478.7z"/>
			</g>
		</g>
		<g>
			<g>
				<path class="st11" d="M178.7,477.9c2,1.2,3.4,3,4.3,5.1c0.2,0.4,0.9,0.2,0.7-0.2c-0.9-2.3-2.5-4.2-4.7-5.6
					C178.7,477,178.3,477.7,178.7,477.9L178.7,477.9z"/>
			</g>
		</g>
		<g>
			<g>
				<path class="st11" d="M169.5,496.7c13.4-0.4,26.7-0.2,40,0.8c0.5,0,0.5-0.7,0-0.8c-13.3-1-26.7-1.3-40-0.8
					C169.1,495.9,169.1,496.7,169.5,496.7L169.5,496.7z"/>
			</g>
		</g>
		<path class="st6" d="M251.7,356.3c22.5,8,42,13.9,57.7,18.4c9.6,2.7,19.1,5.3,31,3.4c11.2-1.7,20.8-6.7,23.8-8.2
			c5.4-2.8,9.7-5.8,12.7-8.1c1-5.2,1.8-11.1,2.2-17.7c0.5-7.7,0.2-14.6-0.3-20.6c-10.5-5.3-25.6-11.3-44.5-14
			c-10.3-1.4-19.5-1.6-27.3-1.2c-11.6-3-21.8-4.7-30-5.6c-11.8-1.4-20.8-1.4-27.6-1.4c-1.2,0-5.4,0.1-13.7,0.4
			c-10.4,0.3-13.2,0.5-16.9,2.2c-4.9,2.3-7.7,5.6-8.5,6.5c-2.9,3.6-3.9,7.2-5.3,13.4c-2.8,12.9-3.5,20.6-3.5,20.6
			c-1.1,11.4-1.4,18.6-1.8,25.3c-0.6,10-0.9,9.8-2.9,30.5c-3.6,39.2-4.2,58.8-4.4,65.4c-0.1,4.8-0.2,8.8-0.2,11.4
			c1,1.2,2.6,2.6,4.7,3.6c6.9,3.4,14.1-0.1,15.3-0.7c1.9-5.3,4.2-12.2,6.9-20.4c0.7-2.2,3.3-10.3,6.7-21.8
			c3.5-12.1,3.9-14.2,7.6-26.7c1.7-5.8,3.8-13.1,6.4-21.2C242.5,381.4,246.3,370,251.7,356.3z"/>
		<g>
			<path class="st12" d="M201.4,347.2c0.5-9.4,2.1-18.6,4.9-27.6c1.6-5,3.7-10.3,8-13.4c3.9-2.9,9-3.5,13.8-3.9
				c23.3-2,46.8-0.8,69.7,3.6"/>
		</g>
		<g>
			<g>
				<path class="st11" d="M238.5,350.7c24.2,9.9,49.2,19.3,74.7,25.3c11,2.6,22.4,4,33.5,1.4c11.2-2.6,21-8.9,30.3-15.3
					c0.4-0.3,0-0.9-0.4-0.6c-9.2,6.4-19,12.6-30.1,15.2c-12.8,3-26,0.6-38.5-2.8c-23.6-6.3-46.7-14.6-69.3-23.9
					C238.3,349.8,238.1,350.6,238.5,350.7L238.5,350.7z"/>
			</g>
		</g>
		<g>
			<path class="st12" d="M251.7,356.3c-9,23.6-16.8,47.6-23.5,71.9c-4.7,17.1-8.9,34.3-15.8,50.6"/>
		</g>
		<g>
			<path class="st12" d="M201.3,355.1c-4.4,40-7.5,80.1-9.3,120.2"/>
		</g>
		<g>
			<path class="st12" d="M192.3,477c4.2,5,12,6.6,17.8,3.7"/>
		</g>
	</g>
	<g id="head">
		<path class="st14" d="M324.8,125.4c-0.1,1.2-0.3,3-0.1,5.2c0.2,2.4,0.5,5.1,2.2,7.8c0.6,1,2.3,3.6,5.7,4.9c3,1.2,8.1,1.6,11.2-1.8
			c3.2-3.4,2.5-8.7,0.8-11.8C341.7,124.5,333.4,122.2,324.8,125.4z"/>
		<path class="st8" d="M338,137.1c-1.3-0.8-3.1-2-5-3.7c-3.9-3.3-9.3-8-10.3-15.2c-0.8-5.3,1.1-9.4,1.7-10.6
			c0.6-1.3,3.9-8.1,11.2-9.4c1.6-0.3,6.1-0.8,10.2,2.1c3.9,2.7,5,6.7,5.3,7.8c1.5-2.2,4-5,7.7-7.1c2.7-1.5,7.2-4,11.7-2.3
			c2.4,0.9,5.3,3.2,5.8,6.1c0.2,1.5-0.4,1.9-0.9,5.8c-0.3,2.9-0.5,4.4,0.1,5.3c0.9,1.4,2.6,1.3,6.9,2.3c2.8,0.6,5.3,1.2,7.7,2.4
			c4.1,2.1,6.3,5.4,7.2,6.7c2.5,3.7,3,7.2,3.4,9.7c0.2,1.2,0.8,5.9-0.6,11.9c-1.8,7.5-5.6,12.4-7.8,15.1c-2.1,2.7-7.2,8.8-16.1,12.6
			c-3.6,1.5-9.4,4-16.9,2.9c-2.6-0.4-10.2-1.8-16.2-8.4c-4.1-4.5-5.5-9.1-6.2-11.7C333.9,149.6,336.6,140.9,338,137.1z"/>
		<g>
			<path class="st12" d="M324.8,125.4c-0.1,1-0.2,2-0.2,3c0,3.5,0.5,7.1,2.3,10.1c1.8,3,5,5.4,8.5,5.4"/>
		</g>
		<g>
			<path class="st12" d="M337,136.5c-3.6-2.4-6.9-5.2-9.8-8.4c-1.3-1.4-2.6-3-3.4-4.8c-0.7-1.6-1.1-3.3-1.2-5.1
				c-0.4-4.9,0.7-10,3.7-14c3-3.9,7.8-6.5,12.8-6.3c4.9,0.3,9.7,3.6,11.1,8.3"/>
		</g>
		<g>
			<path class="st12" d="M337.7,160c-1.3-9.9-0.9-20.1,1.8-29.7s7.7-18.7,14.9-25.6c2.3-2.2,4.9-4.3,7.9-5.4c3-1.2,6.5-1.4,9.4,0
				c2.9,1.4,5.1,4.5,4.8,7.7c-0.2,1.8-1,3.5-1.4,5.2c-0.4,1.8-0.1,3.9,1.4,4.9c0.7,0.4,1.5,0.6,2.3,0.7c5.1,0.8,10.4,1.8,14.5,5.1
				c2.5,2,4.3,4.7,5.6,7.7c2.9,6.7,2.8,14.4,0.5,21.3c-2.3,6.9-6.8,13-12.2,17.8c-5.1,4.5-11.2,8-17.8,9.5
				c-6.6,1.5-13.8,0.8-19.8-2.4s-10.5-9.3-11.3-16.1"/>
		</g>
		<path class="st1" d="M348.6,111.3c-4.4-1.6-8.9,0.7-10,4.4c-0.9,2.8,0.3,6.2,3.1,8.1c-0.1-1.1-0.3-4,1.4-7.1
			C344.8,113.3,347.6,111.8,348.6,111.3z"/>
	</g>
	<g id="torso">
		<path class="st15" d="M289.1,157.9c-0.1,5.8-0.3,13.4-0.3,22.2c0,22.4,1,39.6,1.4,45.9c0.8,14.5,2.2,37.7,7.2,67.3
			c1.7,9.9,3.4,18.1,4.6,23.7c3.2,1.5,7.5,3.3,12.7,5.1c15.1,5.2,28.8,6.8,38.8,7.1c15.1,0.5,27.7-1.7,36.9-4
			c2.5-7.9,5.8-18.5,9.4-31.1c3.8-13.5,8.2-28.6,12.4-48c4.3-19.8,9.1-41.8,10.7-70.7c0.7-11.9,0.7-21.8,0.5-28.6
			c-3.1-1.1-8.2-2.8-14.4-4.3c-45-11.4-82-0.3-89.6,2.1C312,147,301.3,151,289.1,157.9z"/>
		<g>
			<path class="st12" d="M289.1,157.9c12.6-6.1,25.2-12.3,38.7-15.8c17.3-4.5,35.6-4.6,53.5-3.4c13.8,1,27.7,2.7,40.6,7.6"/>
		</g>
		<g>
			<g>
				<path class="st3" d="M423.2,156.1c-0.3,57.2-16.2,112.5-32.2,166.9c-0.1,0.5,0.6,0.7,0.7,0.2c15.9-54.5,31.9-109.9,32.2-167.1
					C424,155.6,423.2,155.6,423.2,156.1L423.2,156.1z"/>
			</g>
		</g>
		<g>
			<path class="st12" d="M288.9,175c-0.4,46.9,3.7,93.8,12.3,140"/>
		</g>
		<g>
			<g>
				<path class="st3" d="M301.9,317.3c27.7,12.7,59.1,15.7,88.7,8.3c0.5-0.1,0.3-0.8-0.2-0.7c-29.4,7.3-60.6,4.4-88.1-8.2
					C301.8,316.4,301.4,317.1,301.9,317.3L301.9,317.3z"/>
			</g>
		</g>
	</g>
	<g id="hand">
		<path class="st14" d="M226.7,219c-0.2-1.2-0.5-2.9-1.2-4.8c-0.3-0.8-1-2.6-3.2-5.8c-2.9-4.2-5.3-7.8-7.6-7.4c-0.1,0-1,0.2-1.4,0.9
			c-0.6,1-0.1,2.6,1.4,4.2c-3.8-1.8-6.7-3.6-8.8-5c-1.5-1-5.1-3.4-9.8-6.3c-2.6-1.6-4.3-2.5-4.7-2.1c-0.3,0.4,0.4,1.6,1.1,2.6
			c0.1,0.7,0.3,1.6,0.4,2.8c0.4,2.6,0.6,3.9,0.6,4.7c-0.1,2.2-0.7,2.5-0.5,4.1c0.2,1.5,0.9,2.6,1.5,3.3c1.3,2.4,3.3,5.6,6.2,8.9
			c3.4,4,6.6,6.5,9.1,8.3c3.2,2.4,7.8,5.5,13.7,8.3C224.6,230.2,225.7,224.6,226.7,219z"/>
		<path class="st15" d="M293.9,155.6c-0.8,0.2-3.4,1.2-5.1,3.9c-1,1.6-1.2,3.2-1.3,4c-1.6,5.1-3.2,10.2-4.8,15.3
			c-5.1,16.1-10.1,32.1-15.2,48.2c-5.4-0.3-11.7-1.1-18.6-2.8c-9.2-2.2-16.8-5.3-22.7-8.3c-1.2,1.4-3,4-4.1,7.5
			c-1.6,5.2-0.7,9.6-0.1,11.6c6,6.2,14,14.2,23.1,22.6c6.6,6.1,5.4,4.7,12.6,11.3c0,0,3.3,3.1,9.1,7.8c4.1,3.3,5.8,4.6,8.5,5.4
			c1.2,0.4,4.3,1.3,8,0.4c1.9-0.4,4-1.4,7.8-4.8c4.2-3.8,6.2-7,11.8-14.7c4-5.6,2.7-3.6,5.9-8.2c3.1-4.4,7.7-10.9,13.1-19.3
			c6.7-10.5,10.5-16.4,14.7-25.1c3.1-6.5,5.3-12.1,6.6-15.9c-0.5-7.1-2.6-12.3-4.5-15.7C326.8,156.8,296.4,155.7,293.9,155.6z"/>
		<g>
			<path class="st12" d="M288.8,159.5c-7.1,22.5-14.2,45-21.3,67.5"/>
		</g>
		<g>
			<path class="st12" d="M226.5,215.7c12.6,5.7,25.9,9.8,39.5,12.1"/>
		</g>
		<g>
			<g>
				<path class="st3" d="M225.3,216c-3.6,5.2-5,11.3-4.2,17.6c0.1,0.5,0.8,0.3,0.7-0.2c-0.9-6.1,0.6-11.9,4.1-17
					C226.2,216,225.5,215.6,225.3,216L225.3,216z"/>
			</g>
		</g>
		<g>
			<path class="st12" d="M222.1,235.4c13.9,14.2,28.5,27.8,43.6,40.6c4.1,3.5,8.8,7.1,14.2,7.1c7.1,0,12.5-6.2,16.8-11.9
				c15.9-21.1,31-42.9,42.8-66.5"/>
		</g>
		<g>
			<path class="st12" d="M226.2,216c-2-5.9-6-11.2-11.1-14.7c-0.5-0.3-1.3-0.5-1.4,0"/>
		</g>
		<g>
			<g>
				<path class="st3" d="M212.5,203.6c0.4,1.1,1,2,1.9,2.8c0.4,0.3,0.9-0.2,0.5-0.5c-0.7-0.7-1.3-1.5-1.7-2.5
					C213.1,202.9,212.4,203.1,212.5,203.6L212.5,203.6z"/>
			</g>
		</g>
		<g>
			<path class="st12" d="M214.8,206.5c-7.8-3.9-14.4-10.1-22.5-13.4"/>
		</g>
		<g>
			<g>
				<path class="st3" d="M191.2,194.2c3.1,4.2,6.7,7.9,10.9,11c0.4,0.3,0.8-0.4,0.4-0.6c-4.1-3-7.7-6.6-10.7-10.7
					C191.5,193.4,190.9,193.8,191.2,194.2L191.2,194.2z"/>
			</g>
		</g>
		<g>
			<g>
				<path class="st3" d="M191.9,196.8c2,4.8,5,9,8.9,12.5c0.4,0.3,0.9-0.2,0.5-0.5c-3.8-3.4-6.8-7.5-8.7-12.2
					C192.5,196.2,191.8,196.3,191.9,196.8L191.9,196.8z"/>
			</g>
		</g>
		<g>
			<g>
				<path class="st3" d="M193.2,203c1.5,4.1,3.9,7.7,7.3,10.5c0.4,0.3,0.9-0.2,0.5-0.5c-3.3-2.7-5.7-6.2-7.1-10.2
					C193.7,202.4,193,202.5,193.2,203L193.2,203z"/>
			</g>
		</g>
		<g>
			<path class="st12" d="M192.7,206.2c5,13.1,16.8,22.5,29.2,28.9"/>
		</g>
	</g>
	<g id="chair_back">
		<path class="st13" d="M337.1,153.3c-11.2,39.6-21.3,87.7-25.6,142.7c-2.5,31.2-2.7,60.2-1.7,86.5c9.4,2.1,19.7,3.7,30.9,4.5
			c42.9,3.2,78.7-6.8,102.8-16.3c4.4-44.4,11.2-91.9,21.3-142.1c4.7-23.1,9.8-45.4,15.2-66.8c-3-5.2-6-10.5-9-15.7
			c-20-2.6-44.8-4.2-73-2.2C374.7,145.4,354.2,149.1,337.1,153.3z"/>
	</g>
</g>
</svg>
